<mxfile host="app.diagrams.net" modified="2023-11-15T05:57:08.901Z" agent="Mozilla/5.0 (Windows NT 10.0; Win64; x64) AppleWebKit/537.36 (KHTML, like Gecko) Chrome/118.0.0.0 Safari/537.36" etag="pkYf25cJbae4tLmEcqMD" version="22.1.0" type="github">
  <diagram name="Page-1" id="2YBvvXClWsGukQMizWep">
    <mxGraphModel dx="1964" dy="1710" grid="1" gridSize="10" guides="1" tooltips="1" connect="1" arrows="1" fold="1" page="1" pageScale="1" pageWidth="850" pageHeight="1100" math="0" shadow="0">
      <root>
        <mxCell id="0" />
        <mxCell id="1" parent="0" />
        <mxCell id="RfcoJ_kTB40_jnH2eK2n-32" value="" style="rounded=0;whiteSpace=wrap;html=1;" vertex="1" parent="1">
          <mxGeometry x="-20" y="-920" width="870" height="870" as="geometry" />
        </mxCell>
        <mxCell id="RfcoJ_kTB40_jnH2eK2n-33" value="" style="rounded=0;whiteSpace=wrap;html=1;" vertex="1" parent="1">
          <mxGeometry x="40" y="-850" width="780" height="760" as="geometry" />
        </mxCell>
        <mxCell id="RfcoJ_kTB40_jnH2eK2n-41" value="" style="rounded=0;whiteSpace=wrap;html=1;direction=south;fontStyle=3" vertex="1" parent="1">
          <mxGeometry x="70" y="-800" width="240" height="530" as="geometry" />
        </mxCell>
        <mxCell id="RfcoJ_kTB40_jnH2eK2n-42" value="" style="rounded=0;whiteSpace=wrap;html=1;direction=south;" vertex="1" parent="1">
          <mxGeometry x="540" y="-800" width="240" height="530" as="geometry" />
        </mxCell>
        <mxCell id="RfcoJ_kTB40_jnH2eK2n-43" value="" style="rounded=1;whiteSpace=wrap;html=1;" vertex="1" parent="1">
          <mxGeometry x="80" y="-770" width="170" height="100" as="geometry" />
        </mxCell>
        <mxCell id="RfcoJ_kTB40_jnH2eK2n-44" value="" style="rounded=1;whiteSpace=wrap;html=1;" vertex="1" parent="1">
          <mxGeometry x="80" y="-620" width="170" height="100" as="geometry" />
        </mxCell>
        <mxCell id="RfcoJ_kTB40_jnH2eK2n-46" value="" style="rounded=1;whiteSpace=wrap;html=1;" vertex="1" parent="1">
          <mxGeometry x="80" y="-460" width="180" height="100" as="geometry" />
        </mxCell>
        <mxCell id="RfcoJ_kTB40_jnH2eK2n-47" value="" style="rounded=1;whiteSpace=wrap;html=1;" vertex="1" parent="1">
          <mxGeometry x="580" y="-770" width="190" height="100" as="geometry" />
        </mxCell>
        <mxCell id="RfcoJ_kTB40_jnH2eK2n-48" value="" style="rounded=1;whiteSpace=wrap;html=1;" vertex="1" parent="1">
          <mxGeometry x="580" y="-620" width="180" height="110" as="geometry" />
        </mxCell>
        <mxCell id="RfcoJ_kTB40_jnH2eK2n-49" value="" style="rounded=1;whiteSpace=wrap;html=1;" vertex="1" parent="1">
          <mxGeometry x="590" y="-460" width="170" height="110" as="geometry" />
        </mxCell>
        <mxCell id="RfcoJ_kTB40_jnH2eK2n-52" value="AZ A" style="text;html=1;strokeColor=none;fillColor=none;align=center;verticalAlign=middle;whiteSpace=wrap;rounded=0;" vertex="1" parent="1">
          <mxGeometry x="130" y="-800" width="100" height="30" as="geometry" />
        </mxCell>
        <mxCell id="RfcoJ_kTB40_jnH2eK2n-53" value="VPC&lt;br&gt;10.0.0.0/16&lt;br&gt;" style="text;html=1;strokeColor=none;fillColor=none;align=center;verticalAlign=middle;whiteSpace=wrap;rounded=0;" vertex="1" parent="1">
          <mxGeometry x="60" y="-840" width="120" height="40" as="geometry" />
        </mxCell>
        <mxCell id="RfcoJ_kTB40_jnH2eK2n-54" value="AWS CLOUD" style="text;html=1;strokeColor=none;fillColor=none;align=center;verticalAlign=middle;whiteSpace=wrap;rounded=0;" vertex="1" parent="1">
          <mxGeometry x="-20" y="-910" width="80" height="30" as="geometry" />
        </mxCell>
        <mxCell id="RfcoJ_kTB40_jnH2eK2n-57" value="public subnet 1" style="text;html=1;strokeColor=none;fillColor=none;align=center;verticalAlign=middle;whiteSpace=wrap;rounded=0;" vertex="1" parent="1">
          <mxGeometry x="80" y="-770" width="90" height="30" as="geometry" />
        </mxCell>
        <mxCell id="RfcoJ_kTB40_jnH2eK2n-58" value="10.0.0.0/24&lt;br&gt;" style="text;html=1;strokeColor=none;fillColor=none;align=center;verticalAlign=middle;whiteSpace=wrap;rounded=0;" vertex="1" parent="1">
          <mxGeometry x="80" y="-750" width="60" height="30" as="geometry" />
        </mxCell>
        <mxCell id="RfcoJ_kTB40_jnH2eK2n-59" value="private subnet 1" style="text;html=1;strokeColor=none;fillColor=none;align=center;verticalAlign=middle;whiteSpace=wrap;rounded=0;" vertex="1" parent="1">
          <mxGeometry x="80" y="-620" width="90" height="30" as="geometry" />
        </mxCell>
        <mxCell id="RfcoJ_kTB40_jnH2eK2n-60" value="10.0.3.0/24" style="text;html=1;strokeColor=none;fillColor=none;align=center;verticalAlign=middle;whiteSpace=wrap;rounded=0;" vertex="1" parent="1">
          <mxGeometry x="80" y="-600" width="60" height="30" as="geometry" />
        </mxCell>
        <mxCell id="RfcoJ_kTB40_jnH2eK2n-61" value="private subnet 3" style="text;html=1;strokeColor=none;fillColor=none;align=center;verticalAlign=middle;whiteSpace=wrap;rounded=0;" vertex="1" parent="1">
          <mxGeometry x="80" y="-460" width="90" height="30" as="geometry" />
        </mxCell>
        <mxCell id="RfcoJ_kTB40_jnH2eK2n-62" value="10.0.5.0/24" style="text;html=1;strokeColor=none;fillColor=none;align=center;verticalAlign=middle;whiteSpace=wrap;rounded=0;" vertex="1" parent="1">
          <mxGeometry x="80" y="-440" width="60" height="30" as="geometry" />
        </mxCell>
        <mxCell id="RfcoJ_kTB40_jnH2eK2n-63" value="public subnet 2" style="text;html=1;strokeColor=none;fillColor=none;align=center;verticalAlign=middle;whiteSpace=wrap;rounded=0;" vertex="1" parent="1">
          <mxGeometry x="580" y="-770" width="90" height="30" as="geometry" />
        </mxCell>
        <mxCell id="RfcoJ_kTB40_jnH2eK2n-64" value="10.0.1.0/24" style="text;html=1;strokeColor=none;fillColor=none;align=center;verticalAlign=middle;whiteSpace=wrap;rounded=0;" vertex="1" parent="1">
          <mxGeometry x="580" y="-750" width="60" height="30" as="geometry" />
        </mxCell>
        <mxCell id="RfcoJ_kTB40_jnH2eK2n-65" value="private subnet 2" style="text;html=1;strokeColor=none;fillColor=none;align=center;verticalAlign=middle;whiteSpace=wrap;rounded=0;" vertex="1" parent="1">
          <mxGeometry x="580" y="-620" width="90" height="30" as="geometry" />
        </mxCell>
        <mxCell id="RfcoJ_kTB40_jnH2eK2n-66" value="10.0.4.0/24" style="text;html=1;strokeColor=none;fillColor=none;align=center;verticalAlign=middle;whiteSpace=wrap;rounded=0;" vertex="1" parent="1">
          <mxGeometry x="580" y="-600" width="60" height="30" as="geometry" />
        </mxCell>
        <mxCell id="RfcoJ_kTB40_jnH2eK2n-67" value="private subnet 4" style="text;html=1;strokeColor=none;fillColor=none;align=center;verticalAlign=middle;whiteSpace=wrap;rounded=0;" vertex="1" parent="1">
          <mxGeometry x="590" y="-460" width="90" height="30" as="geometry" />
        </mxCell>
        <mxCell id="RfcoJ_kTB40_jnH2eK2n-70" value="10.0.6.0/24" style="text;html=1;strokeColor=none;fillColor=none;align=center;verticalAlign=middle;whiteSpace=wrap;rounded=0;" vertex="1" parent="1">
          <mxGeometry x="590" y="-440" width="60" height="30" as="geometry" />
        </mxCell>
        <mxCell id="RfcoJ_kTB40_jnH2eK2n-72" value="" style="rounded=1;whiteSpace=wrap;html=1;" vertex="1" parent="1">
          <mxGeometry x="280" y="-620" width="290" height="80" as="geometry" />
        </mxCell>
        <mxCell id="RfcoJ_kTB40_jnH2eK2n-73" value="Nodegroup&lt;br&gt;EC2 instance" style="text;html=1;strokeColor=none;fillColor=none;align=center;verticalAlign=middle;whiteSpace=wrap;rounded=0;" vertex="1" parent="1">
          <mxGeometry x="380" y="-600" width="90" height="30" as="geometry" />
        </mxCell>
        <mxCell id="RfcoJ_kTB40_jnH2eK2n-74" value="" style="rounded=1;whiteSpace=wrap;html=1;" vertex="1" parent="1">
          <mxGeometry x="290" y="-450" width="280" height="90" as="geometry" />
        </mxCell>
        <mxCell id="RfcoJ_kTB40_jnH2eK2n-75" value="Database RDS" style="text;html=1;strokeColor=none;fillColor=none;align=center;verticalAlign=middle;whiteSpace=wrap;rounded=0;" vertex="1" parent="1">
          <mxGeometry x="400" y="-440" width="60" height="30" as="geometry" />
        </mxCell>
        <mxCell id="RfcoJ_kTB40_jnH2eK2n-77" value="AZ B" style="text;html=1;strokeColor=none;fillColor=none;align=center;verticalAlign=middle;whiteSpace=wrap;rounded=0;" vertex="1" parent="1">
          <mxGeometry x="645" y="-800" width="60" height="30" as="geometry" />
        </mxCell>
      </root>
    </mxGraphModel>
  </diagram>
</mxfile>
